<svg width="12" height="12" viewBox="0 0 12 12" fill="none" xmlns="http://www.w3.org/2000/svg">
<path fill-rule="evenodd" clip-rule="evenodd" d="M8.24867 3.11628C8.54256 3.3123 8.60601 3.68779 8.39038 3.95496L4.5165 8.7549C4.39216 8.90895 4.19455 8.99996 3.98437 8.99996C3.77419 8.99996 3.57657 8.90895 3.45224 8.7549L1.12791 5.87493C0.912284 5.60776 0.975729 5.23227 1.26962 5.03625C1.5635 4.84023 1.97655 4.89791 2.19217 5.16508L3.98437 7.3857L7.32612 3.2451C7.54174 2.97794 7.95478 2.92026 8.24867 3.11628ZM11.7304 3.11628C12.0243 3.3123 12.0877 3.68779 11.8721 3.95496L7.99821 8.7549C7.78259 9.02206 7.36954 9.07974 7.07566 8.88372C6.78177 8.6877 6.71832 8.31221 6.93395 8.04504L10.8078 3.2451C11.0235 2.97794 11.4365 2.92026 11.7304 3.11628Z" fill="#00521C"/>
</svg>
