<?xml version="1.0" encoding="utf-8"?>
<!-- Svg Vector Icons : http://www.onlinewebfonts.com/icon -->
<!DOCTYPE svg PUBLIC "-//W3C//DTD SVG 1.1//EN" "http://www.w3.org/Graphics/SVG/1.1/DTD/svg11.dtd">
<svg version="1.1" xmlns="http://www.w3.org/2000/svg" xmlns:xlink="http://www.w3.org/1999/xlink" x="0px" y="0px" viewBox="0 0 256 256" enable-background="new 0 0 256 256" xml:space="preserve">
<metadata> Svg Vector Icons : http://www.onlinewebfonts.com/icon </metadata>
<g><g><path fill="#000000" d="M20.5,22.7l215,105.3l-215,105.3L41,137.6l129-8.9v-1.3l-129-8.9L20.5,22.7 M20.5,12.2c-2.3,0-4.6,0.7-6.5,2.2c-3.2,2.5-4.6,6.5-3.8,10.5l20.5,95.8c0.7,3.3,3,6,5.9,7.4c-3,1.3-5.2,4-5.9,7.4l-20.5,95.8c-0.8,3.9,0.6,8,3.8,10.4c1.9,1.5,4.2,2.2,6.5,2.2c1.6,0,3.2-0.4,4.6-1.1l215-105.3c3.6-1.8,5.9-5.4,5.9-9.4c0-4-2.3-7.7-5.9-9.4L25.1,13.3C23.6,12.6,22,12.2,20.5,12.2L20.5,12.2z"/></g></g>
</svg>